<svg width="0" height="0" class="hidden">
  <symbol version="1.1" id="search" xmlns="http://www.w3.org/2000/svg" xmlns:xlink="http://www.w3.org/1999/xlink" x="0px" y="0px" xml:space="preserve" viewBox="0 0 487.95 487.95">
    <g>
      <g>
        <path d="M481.8,453l-140-140.1c27.6-33.1,44.2-75.4,44.2-121.6C386,85.9,299.5,0.2,193.1,0.2S0,86,0,191.4s86.5,191.1,192.9,191.1
			c45.2,0,86.8-15.5,119.8-41.4l140.5,140.5c8.2,8.2,20.4,8.2,28.6,0C490,473.4,490,461.2,481.8,453z M41,191.4
			c0-82.8,68.2-150.1,151.9-150.1s151.9,67.3,151.9,150.1s-68.2,150.1-151.9,150.1S41,274.1,41,191.4z"></path>
      </g>
    </g>
    <g></g>
    <g></g>
    <g></g>
    <g></g>
    <g></g>
    <g></g>
    <g></g>
    <g></g>
    <g></g>
    <g></g>
    <g></g>
    <g></g>
    <g></g>
    <g></g>
    <g></g>
  </symbol>
  <symbol version="1.1" id="growth" xmlns="http://www.w3.org/2000/svg" xmlns:xlink="http://www.w3.org/1999/xlink" x="0px" y="0px" xml:space="preserve" viewBox="0 0 490 490">
    <g>
      <g>
        <g>
          <path d="M440,450V100c0-5.522-4.477-10-10-10h-70c-5.523,0-10,4.478-10,10v350h-10V190c0-5.522-4.477-10-10-10h-70
				c-5.523,0-10,4.478-10,10v260h-10V250c0-5.522-4.477-10-10-10h-70c-5.523,0-10,4.478-10,10v200h-10V320c0-5.522-4.477-10-10-10
				H60c-5.523,0-10,4.478-10,10v130H0v20h490v-20H440z M120,450H70v-75h50V450z M120,355H70v-25h50V355z M220,450h-50V305h50V450z
				 M220,285h-50v-25h50V285z M320,450h-50V245h50V450z M320,225h-50v-25h50V225z M420,450h-50V155h50V450z M420,135h-50v-25h50V135
				z"></path>
          <path d="M57.072,282.072L285,54.143V90h20V30c0-5.522-4.477-10-10-10h-65v20h40.857L42.929,267.929L57.072,282.072z"></path>
        </g>
      </g>
    </g>
    <g></g>
    <g></g>
    <g></g>
    <g></g>
    <g></g>
    <g></g>
    <g></g>
    <g></g>
    <g></g>
    <g></g>
    <g></g>
    <g></g>
    <g></g>
    <g></g>
    <g></g>
  </symbol>
  <symbol xmlns="http://www.w3.org/2000/svg" viewBox="0 0 24 24" id="checkmark">
    <g>
      <g>
        <rect width="24" height="24" opacity="0"></rect>
        <path d="M20 11.83a1 1 0 0 0-1 1v5.57a.6.6 0 0 1-.6.6H5.6a.6.6 0 0 1-.6-.6V5.6a.6.6 0 0 1 .6-.6h9.57a1 1 0 1 0 0-2H5.6A2.61 2.61 0 0 0 3 5.6v12.8A2.61 2.61 0 0 0 5.6 21h12.8a2.61 2.61 0 0 0 2.6-2.6v-5.57a1 1 0 0 0-1-1z"></path>
        <path d="M10.72 11a1 1 0 0 0-1.44 1.38l2.22 2.33a1 1 0 0 0 .72.31 1 1 0 0 0 .72-.3l6.78-7a1 1 0 1 0-1.44-1.4l-6.05 6.26z"></path>
      </g>
    </g>
  </symbol>
  <symbol version="1.1" id="computer" xmlns="http://www.w3.org/2000/svg" xmlns:xlink="http://www.w3.org/1999/xlink" x="0px" y="0px" xml:space="preserve" viewBox="0 0 490 490">
    <g id="Business_1_Bold_49_">
      <path d="M391.495,127.323c-18.635,0-33.749,15.114-33.749,33.749c0,2.756,0.429,5.405,1.057,7.978l-48.632,42.431
		c-3.905-1.577-8.162-2.496-12.633-2.496c-6.462,0-12.449,1.914-17.579,5.068l-79.702-50.133c0.076-0.949,0.291-1.868,0.291-2.848
		c0-18.635-15.113-33.749-33.749-33.749c-18.635,0-33.749,15.113-33.749,33.749c0,4.854,1.072,9.448,2.909,13.628l-29.553,35.326
		c-2.542-0.612-5.16-1.026-7.886-1.026c-18.635,0-33.749,15.113-33.749,33.749c0,18.635,15.113,33.749,33.749,33.749
		c18.635,0,33.749-15.113,33.749-33.749c0-4.548-0.934-8.881-2.557-12.847l29.997-35.846c2.297,0.49,4.655,0.781,7.09,0.781
		c6.355,0,12.219-1.853,17.288-4.9l79.962,50.302c-0.061,0.842-0.26,1.654-0.26,2.527c0,18.635,15.113,33.749,33.749,33.749
		c18.635,0,33.749-15.113,33.749-33.749c0-2.802-0.444-5.482-1.087-8.1l48.556-42.354c3.935,1.608,8.238,2.527,12.755,2.527
		c18.635,0,33.749-15.113,33.749-33.749C425.259,142.452,410.13,127.323,391.495,127.323z"></path>
      <path d="M229.687,381.542v54.865H126.328v30.625h237.344v-30.625H260.313v-54.865h214.375c8.422,0,15.312-6.891,15.312-15.312
		V38.281c0-8.422-6.891-15.313-15.312-15.313H15.312C6.891,22.969,0,29.859,0,38.281v327.948c0,8.422,6.891,15.312,15.312,15.312
		H229.687z M30.625,53.594h428.75v297.323H30.625V53.594z"></path>
    </g>
    <g></g>
    <g></g>
    <g></g>
    <g></g>
    <g></g>
    <g></g>
    <g></g>
    <g></g>
    <g></g>
    <g></g>
    <g></g>
    <g></g>
    <g></g>
    <g></g>
    <g></g>
  </symbol>
  <symbol version="1.1" id="settings" xmlns="http://www.w3.org/2000/svg" xmlns:xlink="http://www.w3.org/1999/xlink" x="0px" y="0px" xml:space="preserve" viewBox="0 0 490.2 490.2">
    <g>
      <g>
        <g>
          <path d="M469.1,173.1h-37.5c-1-3.1-3.1-6.3-4.2-9.4l26.1-26.1c8.3-8.3,8.3-20.9,0-29.2l-71.9-71.9c-8.3-8.3-20.9-8.3-29.2,0
				l-26.1,26.1c-3.1-2.1-6.3-3.1-9.4-4.2V20.9C316.9,9.4,307.5,0,296,0H193.9C182.4,0,173,9.4,173,20.9v37.5c-3.1,1-6.3,3.1-9.4,4.2
				l-26.1-26.1c-8.3-8.3-20.9-8.3-29.2,0l-71.9,71.9c-4.2,4.2-6.3,9.4-6.3,14.6s2.1,10.4,6.3,14.6l26.1,26.1
				c-2.1,3.1-3.1,6.3-4.2,9.4H20.9C9.4,173.1,0,182.5,0,194v102.2c0,11.5,9.4,20.9,20.9,20.9h37.5c1,3.1,3.1,6.3,4.2,9.4l-26.1,26.1
				c-4.2,4.2-6.3,9.4-6.3,14.6s2.1,10.4,6.3,14.6l71.9,71.9c8.3,8.3,20.9,8.3,29.2,0l26.1-26.1c3.1,2.1,6.3,3.1,9.4,4.2v37.5
				c0,11.5,9.4,20.9,20.9,20.9h102.2c11.5,0,20.9-9.4,20.9-20.9v-37.5c3.1-1,6.3-3.1,9.4-4.2l26.1,26.1c8.3,8.3,20.9,8.3,29.2,0
				l71.9-71.9c8.3-8.3,8.3-20.9,0-29.2l-26.1-26.1c2.1-3.1,3.1-6.3,4.2-9.4h37.5c11.5,0,20.9-9.4,20.9-20.9V193.9
				C490,182.4,480.6,173.1,469.1,173.1z M448.3,275.2H417c-9.4,0-16.7,6.3-19.8,14.6c-3.1,10.4-7.3,20.9-12.5,30.2
				c-5.2,8.3-3.1,18.8,3.1,25l21.9,21.9L367,409.7l-21.9-21.9c-7.3-6.3-16.7-7.3-25-3.1c-9.4,5.2-19.8,9.4-30.2,12.5
				c-8.3,2.1-14.6,10.4-14.6,19.8v31.3h-60.5l0,0V417c0-9.4-6.3-16.7-14.6-19.8c-10.4-3.1-20.9-7.3-30.2-12.5
				c-8.3-5.2-18.8-3.1-25,3.1l-22,21.9L80.3,367l21.9-21.9c6.3-7.3,7.3-16.7,3.1-25c-5.2-9.4-9.4-19.8-12.5-30.2
				c-2.1-8.3-10.4-14.6-19.8-14.6H41.7v-60.5H73c9.4,0,16.7-6.3,19.8-14.6c3.1-10.4,7.3-20.9,12.5-30.2c5.2-8.3,3.1-18.8-3.1-25
				l-21.9-22L123,80.3l21.9,21.9c7.3,6.3,16.7,7.3,25,3.1c9.4-5.2,19.8-9.4,30.2-12.5c8.3-2.1,14.6-10.4,14.6-19.8V41.7h60.5V73
				c0,9.4,6.3,16.7,14.6,19.8c10.4,3.1,20.9,7.3,30.2,12.5c8.3,5.2,18.8,3.1,25-3.1l22-21.9l42.7,42.7l-21.9,21.9
				c-6.3,7.3-7.3,16.7-3.1,25c5.2,9.4,9.4,19.8,12.5,30.2c2.1,8.3,10.4,14.6,19.8,14.6h31.3L448.3,275.2L448.3,275.2z"></path>
          <path d="M245,131.4c-62.6,0-113.6,51.1-113.6,113.6s51,113.6,113.6,113.6s113.6-51,113.6-113.6S307.6,131.4,245,131.4z
				 M245,316.9c-39.6,0-71.9-32.3-71.9-71.9s32.3-71.9,71.9-71.9s71.9,32.3,71.9,71.9S284.6,316.9,245,316.9z"></path>
        </g>
      </g>
    </g>
    <g></g>
    <g></g>
    <g></g>
    <g></g>
    <g></g>
    <g></g>
    <g></g>
    <g></g>
    <g></g>
    <g></g>
    <g></g>
    <g></g>
    <g></g>
    <g></g>
    <g></g>
  </symbol>
  <symbol version="1.1" id="quotes" xmlns="http://www.w3.org/2000/svg" xmlns:xlink="http://www.w3.org/1999/xlink" x="0px" y="0px" xml:space="preserve" viewBox="0 0 508.044 508.044">
    <g>
      <g>
        <path d="M0.108,352.536c0,66.794,54.144,120.938,120.937,120.938c66.794,0,120.938-54.144,120.938-120.938
			s-54.144-120.937-120.938-120.937c-13.727,0-26.867,2.393-39.168,6.61C109.093,82.118,230.814-18.543,117.979,64.303
			C-7.138,156.17-0.026,348.84,0.114,352.371C0.114,352.426,0.108,352.475,0.108,352.536z"></path>
        <path d="M266.169,352.536c0,66.794,54.144,120.938,120.938,120.938s120.938-54.144,120.938-120.938S453.9,231.599,387.106,231.599
			c-13.728,0-26.867,2.393-39.168,6.61C375.154,82.118,496.875-18.543,384.04,64.303C258.923,156.17,266.034,348.84,266.175,352.371
			C266.175,352.426,266.169,352.475,266.169,352.536z"></path>
      </g>
    </g>
    <g></g>
    <g></g>
    <g></g>
    <g></g>
    <g></g>
    <g></g>
    <g></g>
    <g></g>
    <g></g>
    <g></g>
    <g></g>
    <g></g>
    <g></g>
    <g></g>
    <g></g>
  </symbol>
  <symbol version="1.1" id="wordpress" xmlns="http://www.w3.org/2000/svg" xmlns:xlink="http://www.w3.org/1999/xlink" x="0px" y="0px" xml:space="preserve" viewBox="0 0 512 512">
    <g>
      <g>
        <g>
          <path d="M41.073,152.466c-1.425-3.903-5.074-6.551-9.226-6.696c-4.175-0.132-7.977,2.245-9.669,6.039
				C7.468,184.791,0.009,219.844,0.009,255.99c0,48.964,13.875,96.559,40.124,137.639c25.548,39.983,61.564,72.053,104.158,92.743
				c1.418,0.69,2.941,1.025,4.454,1.025c2.474,0,4.921-0.9,6.836-2.629c3.085-2.785,4.172-7.164,2.747-11.068L41.073,152.466z
				 M20.408,255.99c0-24.264,3.652-47.994,10.883-70.837l98.5,269.854C61.706,412.039,20.408,337.973,20.408,255.99z"></path>
          <path d="M345.376,480.765l-75.473-206.771c-1.471-4.028-5.3-6.702-9.58-6.702c-0.032,0-0.064,0-0.096,0
				c-4.318,0.041-8.143,2.796-9.55,6.88l-73.753,214.293c-0.907,2.633-0.697,5.523,0.581,7.998c1.278,2.475,3.513,4.319,6.185,5.106
				C207.225,508.492,231.555,512,256.001,512c29.053,0,57.656-4.883,85.015-14.514c2.907-1.024,5.195-3.307,6.226-6.212
				c1.031-2.905,0.692-6.121-0.922-8.747C345.897,481.836,345.594,481.272,345.376,480.765z M256.001,491.602
				c-18.944,0-37.814-2.291-56.238-6.818l60.841-176.773l63.36,173.59C301.937,488.241,279.126,491.602,256.001,491.602z"></path>
          <path d="M373.292,403.888c4.314,0,8.167-2.717,9.612-6.788l27.138-76.438c13.018-33.396,19.346-60.555,19.346-83.022
				c0-33.87-10.023-51.413-18.869-66.891c-0.054-0.094-0.109-0.189-0.167-0.283c-0.982-1.597-1.959-3.175-2.926-4.737
				c-10.569-17.065-19.698-31.803-19.698-47.571c0-16.074,11.879-33.424,31.069-33.424c0.317,0,0.804,0.041,1.321,0.085
				c0.404,0.034,0.805,0.067,1.209,0.093c4.329,0.281,8.341-2.2,10.038-6.179c1.696-3.979,0.699-8.597-2.492-11.52
				C381.573,23.87,320.18,0,256.001,0C169.666,0,89.708,43.127,42.115,115.365c-2.031,3.083-2.238,7.022-0.541,10.3
				c1.696,3.277,5.032,5.383,8.72,5.505c6.281,0.208,11.719,0.314,16.16,0.314c23.686,0,58.376-2.55,65.182-3.068
				c1.089,1.962,1.193,6.64,0.137,8.39c-2.685,0.3-14.319,1.553-26.893,2.209c-3.185,0.166-6.108,1.811-7.902,4.449
				c-1.794,2.636-2.251,5.961-1.235,8.984l80.48,239.565c1.395,4.153,5.286,6.951,9.668,6.951c0.004,0,0.008,0,0.011,0
				c4.386-0.005,8.278-2.813,9.665-6.973l53.793-161.323c0.738-2.214,0.696-4.613-0.122-6.8l-29.269-78.243
				c-1.416-3.782-4.928-6.373-8.959-6.608c-11.584-0.675-22.772-1.988-24.791-2.231c-0.919-1.946-0.707-6.437,0.377-8.368
				c7.002,0.524,42.099,3.064,64.336,3.064c23.69,0,58.382-2.55,65.184-3.068c1.09,1.961,1.196,6.641,0.139,8.389
				c-2.677,0.3-14.328,1.554-26.896,2.211c-3.193,0.166-6.123,1.821-7.916,4.469c-1.792,2.648-2.239,5.983-1.207,9.009
				l83.404,244.49c1.401,4.108,5.25,6.879,9.59,6.906C373.25,403.888,373.27,403.888,373.292,403.888z M303.83,158.48
				c8.698-0.708,14.988-1.437,15.375-1.483c11.726-1.386,19.321-12.743,18.061-27.005c-1.206-13.633-10.034-22.696-21.423-22.014
				c-0.065,0.004-0.133,0.008-0.198,0.013c-0.395,0.031-39.714,3.092-64.716,3.092c-23.477,0-63.551-3.063-63.953-3.093
				c-0.061-0.005-0.122-0.009-0.184-0.012c-11.588-0.695-20.652,9.083-21.489,23.228c-0.836,14.126,6.861,24.914,18.351,25.817
				c1.624,0.197,9.756,1.164,19.509,1.907l25.701,68.706l-43.012,128.993l-66.564-198.143c8.736-0.709,15.053-1.442,15.444-1.488
				c11.724-1.386,19.316-12.747,18.055-27.012c-1.207-13.629-10.032-22.697-21.419-22.007c-0.065,0.004-0.133,0.008-0.198,0.013
				c-0.374,0.031-35.884,2.795-60.879,3.071c44.547-57.103,112.646-90.666,185.71-90.666c51.924,0,101.868,16.978,142.757,48.187
				c-18.452,8.187-31.428,27.326-31.428,49.574c0,21.573,11.053,39.419,22.755,58.312c0.927,1.497,1.864,3.01,2.806,4.541
				c8.29,14.509,16.097,28.269,16.097,56.629c0,19.642-6.058,45.128-18.008,75.755c-0.038,0.098-0.074,0.196-0.109,0.295
				l-17.388,48.972L303.83,158.48z"></path>
          <path d="M480.631,133.175c-2.361-4.308-7.461-6.319-12.133-4.786c-4.669,1.538-7.577,6.188-6.917,11.059
				c1.038,7.665,1.566,15.707,1.566,23.901c0,26.824-5.711,53.594-17.971,84.247c-0.06,0.15-0.116,0.302-0.169,0.454l-75.07,217.056
				c-1.393,4.031-0.132,8.504,3.164,11.213c1.868,1.534,4.166,2.319,6.479,2.319c1.765,0,3.539-0.458,5.132-1.388
				c38.017-22.163,69.889-53.921,92.171-91.842c22.969-39.088,35.109-83.839,35.109-129.417
				C511.991,213.087,501.147,170.617,480.631,133.175z M399.158,443.029l65.051-188.086c9.331-23.375,15.137-44.781,17.736-65.726
				c6.365,21.591,9.65,44.116,9.65,66.774C491.595,329.489,456.798,398.762,399.158,443.029z"></path>
        </g>
      </g>
    </g>
    <g>
      <g>
        <path d="M262.286,369.734c-5.342-1.782-11.119,1.108-12.901,6.451l-1.36,4.079c-1.781,5.343,1.108,11.119,6.451,12.901
			c1.07,0.357,2.157,0.526,3.226,0.526c4.27,0,8.25-2.703,9.675-6.977l1.36-4.079C270.518,377.292,267.629,371.516,262.286,369.734z
			"></path>
      </g>
    </g>
    <g>
      <g>
        <path d="M249.707,407.472c-5.344-1.786-11.119,1.108-12.901,6.45l-16.999,50.996c-1.781,5.343,1.108,11.119,6.451,12.9
			c1.07,0.358,2.157,0.527,3.226,0.527c4.27,0,8.25-2.703,9.675-6.977l16.998-50.996
			C257.939,415.029,255.05,409.253,249.707,407.472z"></path>
      </g>
    </g>
    <g></g>
    <g></g>
    <g></g>
    <g></g>
    <g></g>
    <g></g>
    <g></g>
    <g></g>
    <g></g>
    <g></g>
    <g></g>
    <g></g>
    <g></g>
    <g></g>
    <g></g>
  </symbol>
  <symbol xmlns="http://www.w3.org/2000/svg" viewBox="0 0 16 11" id="tick">
    <defs></defs>
    <path id="Shape_10_copy_5" d="M2,4L6,8l8-8"></path>
  </symbol>
  <symbol xmlns="http://www.w3.org/2000/svg" viewBox="0 0 50 2" id="line">
    <path fill="#63c3ef" d="M0 0h50v2H0z"></path>
  </symbol>
  <symbol xmlns="http://www.w3.org/2000/svg" viewBox="0 0 512 512" id="easy">
    <g id="Out_line">
      <path d="m184 304h-112a8.00008 8.00008 0 0 0 -8 8v96a8.00008 8.00008 0 0 0 8 8h112a8.00008 8.00008 0 0 0 8-8v-96a8.00008 8.00008 0 0 0 -8-8zm-8 96h-96v-80h96z"></path>
      <path d="m96 336h32v16h-32z"></path>
      <path d="m128 368h32v16h-32z"></path>
      <path d="m380 64h-244v-40a7.99985 7.99985 0 0 0 -12.87793-6.34082l-104 80a8 8 0 0 0 0 12.68164l104 80a7.99985 7.99985 0 0 0 12.87793-6.34082v-40h216a64.07239 64.07239 0 0 1 64 64v144a63.89737 63.89737 0 0 1 -48 61.99341v-181.99341a8.00008 8.00008 0 0 0 -8-8h-336a8.00008 8.00008 0 0 0 -8 8v256a8.00008 8.00008 0 0 0 8 8h356a116.13134 116.13134 0 0 0 116-116v-200a116.13134 116.13134 0 0 0 -116-116zm-28 176v192h-112v-192zm-208 0v32h-32v-32zm-112 0h64v40a8.00008 8.00008 0 0 0 8 8h48a8.00008 8.00008 0 0 0 8-8v-40h64v192h-192zm448 140a100.113 100.113 0 0 1 -100 100h-348v-32h328a8.00008 8.00008 0 0 0 8-8v-9.605a79.86446 79.86446 0 0 0 64-78.395v-144a80.09041 80.09041 0 0 0 -80-80h-224a8.00008 8.00008 0 0 0 -8 8v31.75293l-82.87891-63.75293 82.87891-63.75293v31.75293a8.00008 8.00008 0 0 0 8 8h252a100.113 100.113 0 0 1 100 100z"></path>
      <path d="m320 400h16v16h-16z"></path>
      <path d="m288 400h16v16h-16z"></path>
      <path d="m256 400h16v16h-16z"></path>
    </g>
  </symbol>
  <symbol version="1.1" xmlns="http://www.w3.org/2000/svg" xmlns:xlink="http://www.w3.org/1999/xlink" enable-background="new 0 0 187.852 187.852" viewBox="0 0 187.852 187.852" id="clock">
    <g>
      <path d="m185.975,75.172c-0.661-3.247-3.826-5.339-7.077-4.682-0.432,0.088-0.843,0.223-1.23,0.395-2.524,1.115-4.025,3.867-3.452,6.682 6.364,31.255-6.146,63.636-31.873,82.495-17.538,12.856-39.179,18.089-60.937,14.739-21.758-3.352-40.821-14.856-53.677-32.395-26.73-36.468-18.81-87.883 17.656-114.615 17.538-12.855 39.18-18.088 60.937-14.739 21.13,3.255 39.701,14.217 52.531,30.91l-5.516-.793c-3.283-0.474-6.322,1.805-6.793,5.085-0.472,3.28 1.805,6.321 5.085,6.793l19.915,2.864c0.132,0.019 0.262,0.018 0.394,0.028 0.156,0.012 0.313,0.034 0.468,0.034 2.936,0 5.501-2.157 5.932-5.147l2.864-19.915c0.472-3.28-1.805-6.321-5.085-6.793-3.281-0.473-6.321,1.805-6.793,5.085l-.811,5.639c-14.725-19.262-36.074-31.909-60.363-35.65-24.925-3.842-49.735,2.17-69.858,16.92-20.124,14.753-33.322,36.604-37.161,61.529-3.839,24.926 2.169,49.735 16.921,69.859 14.751,20.123 36.602,33.32 61.528,37.16 4.914,0.757 9.821,1.131 14.691,1.131 19.833,0 39.012-6.209 55.167-18.052 29.49-21.618 43.832-58.738 36.537-94.567z"></path>
      <path d="m126.601,96.171h-20.48c-1.502-3.399-4.234-6.132-7.633-7.633v-46.034c0-3.313-2.687-6-6-6s-6,2.687-6,6v46.034c-5.236,2.314-8.904,7.55-8.904,13.633 0,8.218 6.686,14.904 14.904,14.904 6.083,0 11.319-3.668 13.633-8.904h20.48c3.313,0 6-2.687 6-6s-2.687-6-6-6zm-37.018,6c0-1.602 1.303-2.905 2.904-2.905s2.905,1.303 2.905,2.905-1.303,2.904-2.905,2.904-2.904-1.303-2.904-2.904z"></path>
    </g>
  </symbol>
  <symbol version="1.1" id="menu" xmlns="http://www.w3.org/2000/svg" xmlns:xlink="http://www.w3.org/1999/xlink" x="0px" y="0px" xml:space="preserve" viewBox="0 0 384.97 384.97">
    <g>
      <g id="Menu">
        <path d="M12.03,84.212h360.909c6.641,0,12.03-5.39,12.03-12.03c0-6.641-5.39-12.03-12.03-12.03H12.03
			C5.39,60.152,0,65.541,0,72.182C0,78.823,5.39,84.212,12.03,84.212z"></path>
        <path d="M372.939,180.455H12.03c-6.641,0-12.03,5.39-12.03,12.03s5.39,12.03,12.03,12.03h360.909c6.641,0,12.03-5.39,12.03-12.03
			S379.58,180.455,372.939,180.455z"></path>
        <path d="M372.939,300.758H12.03c-6.641,0-12.03,5.39-12.03,12.03c0,6.641,5.39,12.03,12.03,12.03h360.909
			c6.641,0,12.03-5.39,12.03-12.03C384.97,306.147,379.58,300.758,372.939,300.758z"></path>
      </g>
      <g></g>
      <g></g>
      <g></g>
      <g></g>
      <g></g>
      <g></g>
    </g>
    <g></g>
    <g></g>
    <g></g>
    <g></g>
    <g></g>
    <g></g>
    <g></g>
    <g></g>
    <g></g>
    <g></g>
    <g></g>
    <g></g>
    <g></g>
    <g></g>
    <g></g>
  </symbol>
  <symbol version="1.1" id="chevron" xmlns="http://www.w3.org/2000/svg" xmlns:xlink="http://www.w3.org/1999/xlink" x="0px" y="0px" xml:space="preserve" viewBox="0 0 512 512">
    <path d="M361.891,242.03L187.347,9.31c-7.714-10.283-22.298-12.365-32.582-4.655
	c-10.283,7.713-12.367,22.3-4.655,32.582l164.072,218.758L150.111,474.762c-7.713,10.282-5.627,24.871,4.655,32.582
	c4.186,3.14,9.086,4.656,13.945,4.656c7.076,0,14.064-3.215,18.637-9.311l174.544-232.732
	C368.097,261.683,368.097,250.304,361.891,242.03z"></path>
    <g></g>
    <g></g>
    <g></g>
    <g></g>
    <g></g>
    <g></g>
    <g></g>
    <g></g>
    <g></g>
    <g></g>
    <g></g>
    <g></g>
    <g></g>
    <g></g>
    <g></g>
  </symbol>
</svg>